<svg xmlns="http://www.w3.org/2000/svg" xmlns:xlink="http://www.w3.org/1999/xlink" version="1.1" width="256" height="256" viewBox="0 0 256 256" xml:space="preserve">

<defs>
</defs>
<g style="stroke: none; stroke-width: 0; stroke-dasharray: none; stroke-linecap: butt; stroke-linejoin: miter; stroke-miterlimit: 10; fill: none; fill-rule: nonzero; opacity: 1;" transform="translate(1.4065934065934016 1.4065934065934016) scale(2.81 2.81)" >
	<path d="M 65.804 61.231 v 26.045 c 0 1.964 -2.018 3.281 -3.816 2.491 l -13.457 -5.916 c -2.25 -0.989 -4.812 -0.989 -7.062 0 l -13.457 5.916 c -1.798 0.791 -3.816 -0.526 -3.816 -2.491 V 61.231 H 65.804 z" style="stroke: none; stroke-width: 1; stroke-dasharray: none; stroke-linecap: butt; stroke-linejoin: miter; stroke-miterlimit: 10; fill: rgb(233,84,84); fill-rule: nonzero; opacity: 1;" transform=" matrix(1 0 0 1 0 0) " stroke-linecap="round" />
	<path d="M 49.393 1.733 L 49.393 1.733 c 1.692 1.58 4.102 2.131 6.311 1.441 l 0 0 c 3.231 -1.009 6.691 0.657 7.916 3.812 l 0 0 c 0.838 2.158 2.771 3.699 5.061 4.036 l 0 0 c 3.349 0.493 5.743 3.495 5.478 6.87 v 0 c -0.181 2.308 0.892 4.535 2.809 5.833 l 0 0 c 2.803 1.897 3.658 5.641 1.955 8.566 l 0 0 c -1.164 2.001 -1.164 4.473 0 6.474 l 0 0 c 1.702 2.925 0.848 6.669 -1.955 8.566 l 0 0 c -1.917 1.297 -2.99 3.525 -2.809 5.833 v 0 c 0.265 3.374 -2.13 6.377 -5.478 6.87 l 0 0 c -2.29 0.337 -4.223 1.878 -5.061 4.036 l 0 0 c -1.226 3.155 -4.686 4.821 -7.916 3.812 h 0 c -2.21 -0.69 -4.62 -0.14 -6.311 1.441 l 0 0 c -2.473 2.311 -6.313 2.311 -8.787 0 l 0 0 c -1.692 -1.58 -4.102 -2.131 -6.311 -1.441 h 0 c -3.231 1.009 -6.691 -0.657 -7.916 -3.812 l 0 0 c -0.838 -2.158 -2.771 -3.699 -5.061 -4.036 l 0 0 c -3.349 -0.493 -5.743 -3.495 -5.478 -6.87 l 0 0 c 0.181 -2.308 -0.892 -4.535 -2.809 -5.833 l 0 0 c -2.803 -1.897 -3.658 -5.641 -1.955 -8.566 l 0 0 c 1.164 -2.001 1.164 -4.473 0 -6.474 l 0 0 c -1.702 -2.925 -0.848 -6.669 1.955 -8.566 l 0 0 c 1.917 -1.297 2.99 -3.525 2.809 -5.833 l 0 0 c -0.265 -3.374 2.13 -6.377 5.478 -6.87 l 0 0 c 2.29 -0.337 4.223 -1.878 5.061 -4.036 l 0 0 c 1.226 -3.155 4.686 -4.821 7.916 -3.812 l 0 0 c 2.21 0.69 4.62 0.14 6.311 -1.441 l 0 0 C 43.08 -0.578 46.92 -0.578 49.393 1.733 z" style="stroke: none; stroke-width: 1; stroke-dasharray: none; stroke-linecap: butt; stroke-linejoin: miter; stroke-miterlimit: 10; fill: rgb(253,188,75); fill-rule: nonzero; opacity: 1;" transform=" matrix(1 0 0 1 0 0) " stroke-linecap="round" />
	<circle cx="44.997" cy="35.527" r="24.517" style="stroke: none; stroke-width: 1; stroke-dasharray: none; stroke-linecap: butt; stroke-linejoin: miter; stroke-miterlimit: 10; fill: rgb(255,219,112); fill-rule: nonzero; opacity: 1;" transform="  matrix(1 0 0 1 0 0) "/>
	<path d="M 58.893 24.769 L 58.893 24.769 c -1.512 -1.512 -3.964 -1.512 -5.476 0 L 42.402 35.783 c -0.912 0.912 -2.39 0.912 -3.301 0 l -2.516 -2.516 c -1.512 -1.512 -3.964 -1.512 -5.477 0 l 0 0 c -1.512 1.512 -1.512 3.964 0 5.476 l 7.993 7.993 c 0.912 0.912 2.39 0.912 3.301 0 l 3.826 -3.826 l 0 0 l 12.665 -12.665 C 60.405 28.733 60.405 26.281 58.893 24.769 z" style="stroke: none; stroke-width: 1; stroke-dasharray: none; stroke-linecap: butt; stroke-linejoin: miter; stroke-miterlimit: 10; fill: rgb(255,255,255); fill-rule: nonzero; opacity: 1;" transform=" matrix(1 0 0 1 0 0) " stroke-linecap="round" />
</g>
</svg>